<svg id="Layer_1" data-name="Layer 1" xmlns="http://www.w3.org/2000/svg" viewBox="0 0 305.57 110.19"><defs><style>.cls-1{fill:#4a6cf7;}.cls-2{fill:#fff;}</style></defs><path class="cls-1" d="M45.94,101A46,46,0,0,1,13.45,22.52a45.94,45.94,0,0,1,65,0l1.77,1.77-17,17-1.77-1.77a21.95,21.95,0,1,0,0,31l1.77-1.77,17,17-1.76,1.77A45.63,45.63,0,0,1,45.94,101Zm0-86.9a41,41,0,0,0,0,81.9A40.61,40.61,0,0,0,73.07,85.67l-9.93-9.93a26.95,26.95,0,1,1,0-41.47l9.93-9.93A40.67,40.67,0,0,0,45.94,14.06Z"/><rect class="cls-1" x="19.44" y="21.5" width="5" height="19.01" transform="translate(-15.5 24.6) rotate(-45)"/><rect class="cls-1" x="67.44" y="69.5" width="5" height="19.01" transform="translate(-35.38 72.6) rotate(-45)"/><rect class="cls-1" x="60.44" y="28.51" width="19.01" height="5" transform="translate(-1.44 58.54) rotate(-45)"/><rect class="cls-1" x="12.44" y="76.51" width="19.01" height="5" transform="translate(-49.44 38.65) rotate(-45)"/><rect class="cls-1" x="43.44" y="79.45" width="5" height="30.74"/><rect class="cls-1" x="43.44" width="5" height="30.57"/><rect class="cls-1" x="2.5" y="52.51" width="19" height="5"/><polygon class="cls-1" points="37.74 61.7 29.69 53.66 43.44 40.67 43.44 30.57 48.44 30.57 48.44 42.82 36.86 53.76 41.27 58.17 37.74 61.7"/><polygon class="cls-1" points="48.44 79.44 43.44 79.44 43.44 67.19 55.02 56.25 50.61 51.84 54.15 48.3 62.19 56.35 48.44 69.34 48.44 79.44"/><path class="cls-2" d="M112.45,59.25a17.83,17.83,0,0,1-8.79-2.15,15.7,15.7,0,0,1-6.07-5.89,16.95,16.95,0,0,1,0-16.7,15.63,15.63,0,0,1,6.07-5.89,17.72,17.72,0,0,1,8.79-2.15,16.79,16.79,0,0,1,7.73,1.66,14.51,14.51,0,0,1,5.2,4.32,17.29,17.29,0,0,1,2.79,5.76h-6.86a8.53,8.53,0,0,0-3.13-3.92,9.52,9.52,0,0,0-5.73-1.62A10.13,10.13,0,0,0,107.33,34a9.22,9.22,0,0,0-3.56,3.61,10.58,10.58,0,0,0-1.29,5.27,11.25,11.25,0,0,0,1.24,5.36,8.82,8.82,0,0,0,3.5,3.56,10.57,10.57,0,0,0,5.23,1.27,9.11,9.11,0,0,0,9.08-6.21h6.86a19.34,19.34,0,0,1-3,6.09,15.39,15.39,0,0,1-5.32,4.57A16.1,16.1,0,0,1,112.45,59.25Z"/><path class="cls-2" d="M143.23,59a12.72,12.72,0,0,1-6.33-1.6,11.86,11.86,0,0,1,0-20.73,13.42,13.42,0,0,1,12.67,0,11.86,11.86,0,0,1,0,20.73A12.73,12.73,0,0,1,143.23,59Zm0-5.32a5.65,5.65,0,0,0,3-.84,6,6,0,0,0,2.18-2.35,8,8,0,0,0,0-6.91,6,6,0,0,0-2.18-2.35,5.81,5.81,0,0,0-6,0,6,6,0,0,0-2.17,2.35,7.86,7.86,0,0,0,0,6.91,6,6,0,0,0,2.17,2.35A5.67,5.67,0,0,0,143.23,53.71Z"/><path class="cls-2" d="M162.28,32.89a3.45,3.45,0,0,1-2.5-1,3.1,3.1,0,0,1,0-4.65,3.65,3.65,0,0,1,5,0,3.12,3.12,0,0,1,0,4.65A3.46,3.46,0,0,1,162.28,32.89Zm-3.1,25.47V35.77h6.2V58.36Z"/><path class="cls-2" d="M170.25,58.36V35.77h6.2v3.1h.23a7.57,7.57,0,0,1,2.76-2.68,8.4,8.4,0,0,1,4.32-1.08,8.6,8.6,0,0,1,6.54,2.45q2.32,2.46,2.32,7.07V58.36h-6.2V45.51a5.27,5.27,0,0,0-1.24-3.78,4.48,4.48,0,0,0-3.41-1.31,4.93,4.93,0,0,0-2.64.75,5.48,5.48,0,0,0-1.94,2.13,6.48,6.48,0,0,0-.74,3.1v12Z"/><path class="cls-2" d="M210.12,58.36v-31h23.25v6.21H216.76v6.2h13.29v5.75H216.76v6.65h16.61v6.2Z"/><path class="cls-2" d="M246.88,59a9.69,9.69,0,0,1-5.25-1.49,10.42,10.42,0,0,1-3.76-4.21,13.52,13.52,0,0,1-1.4-6.26,13.53,13.53,0,0,1,1.4-6.27,10.42,10.42,0,0,1,3.76-4.21,9.68,9.68,0,0,1,5.25-1.48,8.68,8.68,0,0,1,5.41,1.81A8.55,8.55,0,0,1,254,38.65h.22V35.77h6.2V58.36h-6.2V55.48H254a8.55,8.55,0,0,1-1.68,1.73A8.76,8.76,0,0,1,246.88,59Zm1.55-5.32a5.64,5.64,0,0,0,3-.8,5.39,5.39,0,0,0,2-2.3,9,9,0,0,0,0-7.09,5.39,5.39,0,0,0-2-2.3,5.64,5.64,0,0,0-3-.8,5.17,5.17,0,0,0-2.81.8,5.42,5.42,0,0,0-2,2.3,9,9,0,0,0,0,7.09,5.42,5.42,0,0,0,2,2.3A5.17,5.17,0,0,0,248.43,53.71Z"/><path class="cls-2" d="M265.26,58.36V35.77h6.21v3.32h.22a6.39,6.39,0,0,1,2.12-2.68,6,6,0,0,1,3.63-1.08h2.66v6h-3.32a6,6,0,0,0-2.83.62,4.31,4.31,0,0,0-1.84,1.77,5.45,5.45,0,0,0-.64,2.7v12Z"/><path class="cls-2" d="M283.2,58.36V35.77h6.2v3.1h.23a7.52,7.52,0,0,1,2.77-2.68,8.33,8.33,0,0,1,4.31-1.08,8.6,8.6,0,0,1,6.54,2.45q2.33,2.46,2.32,7.07V58.36h-6.2V45.51a5.27,5.27,0,0,0-1.24-3.78,4.48,4.48,0,0,0-3.41-1.31,5,5,0,0,0-2.64.75,5.48,5.48,0,0,0-1.94,2.13,6.48,6.48,0,0,0-.74,3.1v12Z"/><path class="cls-2" d="M97.26,83.49V67.75h11.41v2.52H99.94v4.07h7v2.4h-7V81h8.73v2.52Z"/><path class="cls-2" d="M121.85,83.49,126,75.73l-3.9-8h2.86l3.22,6.7h1.35l3.21-6.7h2.86l-3.89,8,4.11,7.76h-2.87L129.5,77h-1.35l-3.42,6.52Z"/><path class="cls-2" d="M156.29,83.94a8.72,8.72,0,0,1-4.35-1.08,7.88,7.88,0,0,1-3-3,8.87,8.87,0,0,1,0-8.52,7.88,7.88,0,0,1,3-3,8.72,8.72,0,0,1,4.35-1.08,8.38,8.38,0,0,1,3.83.82,7.13,7.13,0,0,1,2.61,2.15,9,9,0,0,1,1.43,2.88h-2.75a5.19,5.19,0,0,0-5.12-3.33,5.68,5.68,0,0,0-2.91.74,5.26,5.26,0,0,0-2,2,6.12,6.12,0,0,0-.72,3,6.32,6.32,0,0,0,.71,3,5.05,5.05,0,0,0,2,2,5.79,5.79,0,0,0,2.93.73,5.17,5.17,0,0,0,3.37-1.07,5.75,5.75,0,0,0,1.87-2.59h2.74a10.08,10.08,0,0,1-1.52,3,7.67,7.67,0,0,1-2.66,2.28A8.13,8.13,0,0,1,156.29,83.94Z"/><path class="cls-2" d="M178.64,83.49V67.75h2.68v6.52H189V67.75h2.69V83.49H189v-6.7h-7.72v6.7Z"/><path class="cls-2" d="M205.59,83.49l4.09-15.74h6.64l4.09,15.74h-2.74l-1.06-4h-7.22l-1.06,4ZM210,76.93h6l-1.73-6.66h-2.5Z"/><path class="cls-2" d="M234.29,83.49V67.75h3.65l7,12.21H245l-.13-1.08V67.75h2.7V83.49H244l-7-12.21h-.13l.11,1.08V83.47Z"/><path class="cls-2" d="M270.51,83.94a8.72,8.72,0,0,1-4.35-1.08,7.88,7.88,0,0,1-3-3,8.87,8.87,0,0,1,0-8.52,7.88,7.88,0,0,1,3-3,8.72,8.72,0,0,1,4.35-1.08,8.41,8.41,0,0,1,3.8.81,7.52,7.52,0,0,1,2.62,2.1A8.59,8.59,0,0,1,278.38,73h-2.75a5.26,5.26,0,0,0-1.85-2.28,5.47,5.47,0,0,0-3.27-.93,5.79,5.79,0,0,0-2.93.73,5.14,5.14,0,0,0-2,2,6.84,6.84,0,0,0,0,6.07,5.05,5.05,0,0,0,2,2,5.79,5.79,0,0,0,2.93.73,5.61,5.61,0,0,0,2.51-.54,5,5,0,0,0,1.81-1.45,4.83,4.83,0,0,0,1-2h-2.74V75.13h7.35v2.33h-1.87a9.49,9.49,0,0,1-1.5,3.29,7.84,7.84,0,0,1-2.71,2.33A8.2,8.2,0,0,1,270.51,83.94Z"/><path class="cls-2" d="M294.15,83.49V67.75h11.4v2.52h-8.73v4.07h7v2.4h-7V81h8.73v2.52Z"/></svg>