<?xml version="1.0" encoding="utf-8"?>
<!-- Generator: Adobe Illustrator 25.4.1, SVG Export Plug-In . SVG Version: 6.00 Build 0)  -->
<svg version="1.1" id="Layer_1" xmlns="http://www.w3.org/2000/svg" xmlns:xlink="http://www.w3.org/1999/xlink" x="0px" y="0px"
	 viewBox="0 0 305.6 110.2" style="enable-background:new 0 0 305.6 110.2;" xml:space="preserve">
<style type="text/css">
	.st0{fill:#231F20;}
	.st1{fill:#FFFFFF;stroke:#231F20;stroke-width:5;stroke-miterlimit:10;}
	.st2{fill:none;stroke:#231F20;stroke-width:5;stroke-miterlimit:10;}
	.st3{fill:#226A78;}
	.st4{fill:#212252;}
	.st5{fill:#326AD5;}
	.st6{fill:#151617;}
	.st7{fill:#FFFFFF;}
	.st8{fill:#4A6CF7;}
	.st9{opacity:0.7;fill:url(#SVGID_00000120559253171120459530000001164484068512032651_);}
	.st10{fill:#021526;}
	.st11{opacity:0.6;}
	.st12{opacity:0.1;clip-path:url(#SVGID_00000023997157236618178840000016486521716242018989_);}
	.st13{opacity:0.7;fill:url(#SVGID_00000038395889363970955330000004263560751609922720_);}
	.st14{opacity:0.1;clip-path:url(#SVGID_00000158029933153522177390000000116210412435013556_);}
	.st15{opacity:0.7;fill:url(#SVGID_00000090985883878862507930000009353284950524832902_);}
	.st16{opacity:0.1;clip-path:url(#SVGID_00000082367068653042072770000001836857202723361672_);}
</style>
<g>
	<g>
		<g>
			<g>
				<g>
					<path class="st8" d="M45.9,101c-12.3,0-23.8-4.8-32.5-13.5C4.8,78.8,0,67.3,0,55c0-12.3,4.8-23.8,13.5-32.5
						c8.7-8.7,20.2-13.5,32.5-13.5c12.3,0,23.8,4.8,32.5,13.5l1.8,1.8l-17,17l-1.8-1.8c-4.1-4.1-9.7-6.4-15.5-6.4
						c-5.9,0-11.4,2.3-15.5,6.4C26.3,43.6,24,49.1,24,55c0,5.9,2.3,11.4,6.4,15.5c4.1,4.1,9.7,6.4,15.5,6.4c5.9,0,11.4-2.3,15.5-6.4
						l1.8-1.8l17,17l-1.8,1.8C69.8,96.2,58.2,101,45.9,101z M45.9,14.1c-10.9,0-21.2,4.3-29,12c-7.7,7.7-12,18-12,29
						c0,10.9,4.3,21.2,12,29c7.7,7.7,18,12,29,12c10.1,0,19.6-3.6,27.1-10.3l-9.9-9.9c-4.8,4-10.8,6.2-17.2,6.2
						c-7.2,0-14-2.8-19-7.9C21.8,69,19,62.2,19,55c0-7.2,2.8-14,7.9-19c5.1-5.1,11.9-7.9,19-7.9c6.4,0,12.4,2.2,17.2,6.2l9.9-9.9
						C65.6,17.7,56,14.1,45.9,14.1z"/>
				</g>
				<g>
					
						<rect x="19.4" y="21.5" transform="matrix(0.7071 -0.7071 0.7071 0.7071 -15.4978 24.5952)" class="st8" width="5" height="19"/>
				</g>
				<g>
					
						<rect x="67.4" y="69.5" transform="matrix(0.7071 -0.7071 0.7071 0.7071 -35.3803 72.5951)" class="st8" width="5" height="19"/>
				</g>
				<g>
					<rect x="60.4" y="28.5" transform="matrix(0.7071 -0.7071 0.7071 0.7071 -1.439 58.5362)" class="st8" width="19" height="5"/>
				</g>
				<g>
					
						<rect x="12.4" y="76.5" transform="matrix(0.7071 -0.7071 0.7071 0.7071 -49.4391 38.6542)" class="st8" width="19" height="5"/>
				</g>
				<g>
					<rect x="43.4" y="79.4" class="st8" width="5" height="30.7"/>
				</g>
				<g>
					<rect x="43.4" class="st8" width="5" height="30.6"/>
				</g>
				<g>
					<rect x="2.5" y="52.5" class="st8" width="19" height="5"/>
				</g>
			</g>
			<g>
				<polygon class="st8" points="37.7,61.7 29.7,53.7 43.4,40.7 43.4,30.6 48.4,30.6 48.4,42.8 36.9,53.8 41.3,58.2 				"/>
			</g>
			<g>
				<polygon class="st8" points="48.4,79.4 43.4,79.4 43.4,67.2 55,56.2 50.6,51.8 54.1,48.3 62.2,56.4 48.4,69.3 				"/>
			</g>
		</g>
	</g>
	<g>
		<g>
			<path class="st10" d="M112.4,59.2c-3.3,0-6.2-0.7-8.8-2.1c-2.6-1.4-4.6-3.4-6.1-5.9c-1.5-2.5-2.2-5.3-2.2-8.3
				c0-3.1,0.7-5.9,2.2-8.3c1.5-2.5,3.5-4.5,6.1-5.9c2.6-1.4,5.5-2.1,8.8-2.1c3,0,5.6,0.6,7.7,1.7c2.2,1.1,3.9,2.5,5.2,4.3
				c1.3,1.8,2.2,3.7,2.8,5.8h-6.9c-0.6-1.5-1.6-2.8-3.1-3.9c-1.5-1.1-3.4-1.6-5.7-1.6c-1.9,0-3.6,0.4-5.1,1.3
				c-1.5,0.9-2.7,2.1-3.6,3.6c-0.9,1.5-1.3,3.3-1.3,5.3c0,2,0.4,3.8,1.2,5.4c0.8,1.5,2,2.7,3.5,3.6c1.5,0.8,3.2,1.3,5.2,1.3
				c2.4,0,4.4-0.6,5.9-1.8c1.5-1.2,2.6-2.7,3.2-4.4h6.9c-0.6,2.2-1.6,4.2-3,6.1c-1.4,1.9-3.1,3.4-5.3,4.6S115.4,59.2,112.4,59.2z"/>
			<path class="st10" d="M143.2,59c-2.3,0-4.4-0.5-6.3-1.6c-1.9-1.1-3.4-2.5-4.5-4.3s-1.6-3.8-1.6-6c0-2.2,0.5-4.2,1.6-6
				c1.1-1.8,2.6-3.3,4.5-4.3c1.9-1.1,4-1.6,6.3-1.6c2.3,0,4.4,0.5,6.3,1.6s3.4,2.5,4.5,4.3c1.1,1.8,1.6,3.8,1.6,6
				c0,2.2-0.5,4.2-1.6,6c-1.1,1.8-2.6,3.3-4.5,4.3C147.7,58.5,145.6,59,143.2,59z M143.2,53.7c1.1,0,2.1-0.3,3-0.8
				c0.9-0.6,1.6-1.3,2.2-2.3c0.5-1,0.8-2.2,0.8-3.5c0-1.3-0.3-2.5-0.8-3.5s-1.3-1.8-2.2-2.3s-1.9-0.8-3-0.8c-1.1,0-2.1,0.3-3,0.8
				c-0.9,0.6-1.6,1.3-2.2,2.3s-0.8,2.2-0.8,3.5c0,1.3,0.3,2.5,0.8,3.5c0.5,1,1.3,1.8,2.2,2.3C141.1,53.4,142.1,53.7,143.2,53.7z"/>
			<path class="st10" d="M162.3,32.9c-1,0-1.8-0.3-2.5-1c-0.7-0.7-1-1.4-1-2.3c0-0.9,0.3-1.7,1-2.3c0.7-0.7,1.5-1,2.5-1
				s1.8,0.3,2.5,1c0.7,0.7,1,1.4,1,2.3c0,0.9-0.3,1.7-1,2.3C164.1,32.6,163.3,32.9,162.3,32.9z M159.2,58.4V35.8h6.2v22.6H159.2z"/>
			<path class="st10" d="M170.3,58.4V35.8h6.2v3.1h0.2c0.6-1.1,1.5-2,2.8-2.7c1.2-0.7,2.7-1.1,4.3-1.1c2.8,0,5,0.8,6.5,2.5
				c1.6,1.6,2.3,4,2.3,7.1v13.7h-6.2V45.5c0-1.7-0.4-2.9-1.2-3.8c-0.8-0.9-2-1.3-3.4-1.3c-0.9,0-1.8,0.3-2.6,0.8
				c-0.8,0.5-1.5,1.2-1.9,2.1c-0.5,0.9-0.7,1.9-0.7,3.1v12H170.3z"/>
			<path class="st10" d="M210.1,58.4v-31h23.3v6.2h-16.6v6.2H230v5.8h-13.3v6.6h16.6v6.2H210.1z"/>
			<path class="st10" d="M246.9,59c-1.9,0-3.7-0.5-5.2-1.5c-1.6-1-2.8-2.4-3.8-4.2c-0.9-1.8-1.4-3.9-1.4-6.3c0-2.4,0.5-4.5,1.4-6.3
				c0.9-1.8,2.2-3.2,3.8-4.2c1.6-1,3.3-1.5,5.2-1.5c1.1,0,2.1,0.2,3,0.5c0.9,0.3,1.7,0.8,2.4,1.3c0.7,0.5,1.2,1.1,1.7,1.7h0.2v-2.9
				h6.2v22.6h-6.2v-2.9H254c-0.4,0.6-1,1.2-1.7,1.7c-0.7,0.5-1.5,1-2.4,1.3S248,59,246.9,59z M248.4,53.7c1.1,0,2.1-0.3,3-0.8
				c0.9-0.5,1.6-1.3,2-2.3c0.5-1,0.7-2.2,0.7-3.5c0-1.4-0.2-2.5-0.7-3.5c-0.5-1-1.2-1.8-2-2.3c-0.9-0.5-1.9-0.8-3-0.8
				c-1,0-2,0.3-2.8,0.8c-0.8,0.5-1.5,1.3-2,2.3c-0.5,1-0.7,2.2-0.7,3.5c0,1.4,0.2,2.5,0.7,3.5c0.5,1,1.2,1.8,2,2.3
				C246.5,53.4,247.4,53.7,248.4,53.7z"/>
			<path class="st10" d="M265.3,58.4V35.8h6.2v3.3h0.2c0.4-1.1,1.2-2,2.1-2.7c1-0.7,2.2-1.1,3.6-1.1h2.7v6h-3.3
				c-1.1,0-2,0.2-2.8,0.6c-0.8,0.4-1.4,1-1.8,1.8c-0.4,0.8-0.6,1.7-0.6,2.7v12H265.3z"/>
			<path class="st10" d="M283.2,58.4V35.8h6.2v3.1h0.2c0.6-1.1,1.5-2,2.8-2.7c1.2-0.7,2.7-1.1,4.3-1.1c2.8,0,5,0.8,6.5,2.5
				c1.6,1.6,2.3,4,2.3,7.1v13.7h-6.2V45.5c0-1.7-0.4-2.9-1.2-3.8c-0.8-0.9-2-1.3-3.4-1.3c-0.9,0-1.8,0.3-2.6,0.8
				c-0.8,0.5-1.5,1.2-1.9,2.1c-0.5,0.9-0.7,1.9-0.7,3.1v12H283.2z"/>
		</g>
		<g>
			<path class="st10" d="M97.3,83.5V67.7h11.4v2.5h-8.7v4.1h7v2.4h-7V81h8.7v2.5H97.3z"/>
			<path class="st10" d="M121.8,83.5l4.1-7.8l-3.9-8h2.9l3.2,6.7h1.3l3.2-6.7h2.9l-3.9,8l4.1,7.8h-2.9l-3.4-6.5h-1.3l-3.4,6.5H121.8
				z"/>
			<path class="st10" d="M156.3,83.9c-1.6,0-3.1-0.4-4.3-1.1c-1.3-0.7-2.3-1.7-3-3c-0.7-1.3-1.1-2.7-1.1-4.3c0-1.6,0.4-3,1.1-4.3
				c0.7-1.3,1.7-2.3,3-3c1.3-0.7,2.7-1.1,4.3-1.1c1.5,0,2.7,0.3,3.8,0.8c1.1,0.5,2,1.3,2.6,2.1s1.1,1.8,1.4,2.9h-2.7
				c-0.4-0.9-1-1.7-1.8-2.4s-2-1-3.3-1c-1.1,0-2,0.2-2.9,0.7c-0.9,0.5-1.5,1.2-2,2c-0.5,0.9-0.7,1.9-0.7,3c0,1.2,0.2,2.2,0.7,3
				c0.5,0.9,1.1,1.5,2,2c0.9,0.5,1.8,0.7,2.9,0.7c1.4,0,2.5-0.4,3.4-1.1c0.9-0.7,1.5-1.6,1.9-2.6h2.7c-0.3,1.1-0.8,2.1-1.5,3
				c-0.7,0.9-1.6,1.7-2.7,2.3S157.7,83.9,156.3,83.9z"/>
			<path class="st10" d="M178.6,83.5V67.7h2.7v6.5h7.7v-6.5h2.7v15.7H189v-6.7h-7.7v6.7H178.6z"/>
			<path class="st10" d="M205.6,83.5l4.1-15.7h6.6l4.1,15.7h-2.7l-1.1-4h-7.2l-1.1,4H205.6z M210,76.9h6l-1.7-6.7h-2.5L210,76.9z"/>
			<path class="st10" d="M234.3,83.5V67.7h3.6l7,12.2h0.1l-0.1-1.1V67.7h2.7v15.7H244l-7-12.2h-0.1l0.1,1.1v11.1L234.3,83.5z"/>
			<path class="st10" d="M270.5,83.9c-1.6,0-3.1-0.4-4.3-1.1s-2.3-1.7-3-3c-0.7-1.3-1.1-2.7-1.1-4.3c0-1.6,0.4-3,1.1-4.3
				c0.7-1.3,1.7-2.3,3-3s2.7-1.1,4.3-1.1c1.5,0,2.7,0.3,3.8,0.8c1.1,0.5,2,1.2,2.6,2.1c0.7,0.9,1.2,1.8,1.5,2.8h-2.7
				c-0.4-0.9-1-1.7-1.9-2.3s-2-0.9-3.3-0.9c-1.1,0-2.1,0.2-2.9,0.7c-0.9,0.5-1.5,1.2-2,2s-0.7,1.9-0.7,3c0,1.2,0.2,2.2,0.7,3
				c0.5,0.9,1.1,1.5,2,2c0.9,0.5,1.8,0.7,2.9,0.7c0.9,0,1.8-0.2,2.5-0.5c0.7-0.4,1.3-0.8,1.8-1.5c0.5-0.6,0.8-1.3,1-2H273v-2.3h7.4
				v2.3h-1.9c-0.3,1.2-0.8,2.3-1.5,3.3c-0.7,1-1.6,1.8-2.7,2.3C273.2,83.7,271.9,83.9,270.5,83.9z"/>
			<path class="st10" d="M294.1,83.5V67.7h11.4v2.5h-8.7v4.1h7v2.4h-7V81h8.7v2.5H294.1z"/>
		</g>
	</g>
</g>
</svg>
