<?xml version="1.0" encoding="utf-8"?>
<!-- Generator: Adobe Illustrator 25.4.1, SVG Export Plug-In . SVG Version: 6.00 Build 0)  -->
<svg version="1.1" id="Layer_1" xmlns="http://www.w3.org/2000/svg" xmlns:xlink="http://www.w3.org/1999/xlink" x="0px" y="0px"
	 viewBox="0 0 500 100" style="enable-background:new 0 0 500 100;" xml:space="preserve">
<style type="text/css">
	.st0{fill:#FFFFFF;}
	.st1{fill-rule:evenodd;clip-rule:evenodd;fill:#FFFFFF;}
</style>
<g>
	<path class="st0" d="M189.5,53.4h14.1c2,0,3.6,1.6,3.6,3.6s-1.6,3.6-3.6,3.6h-17.1c-0.3,0-0.5,0.1-0.7,0.3l-5.1,4.4
		c-0.8,0.7-0.3,2,0.7,2h21.3l0,0l0,0c0.3,0,0.5,0,0.8,0c5.7,0,10.2-4.6,10.2-10.3c0-5.4-4.1-9.8-9.4-10.3l0,0l0,0h-15.2
		c-2,0-3.6-1.6-3.6-3.6s1.6-3.6,3.6-3.6h17c0.3,0,0.5-0.1,0.8-0.3l4.8-4.4c0.8-0.7,0.3-2-0.8-2h-21.5l0,0l0,0c-0.1,0-0.2,0-0.3,0
		c-5.7,0-10.2,4.6-10.2,10.3s4.6,10.3,10.2,10.3C189.3,53.4,189.4,53.4,189.5,53.4L189.5,53.4L189.5,53.4z"/>
	<path class="st0" d="M271.8,32.7c-0.6,0-1.1,0.5-1.1,1.1v32.3c0,0.6,0.5,1.1,1.1,1.1h25.9c0.3,0,0.6-0.1,0.8-0.4l3.2-3.5
		c0.7-0.7,0.2-1.9-0.8-1.9h-22.6c-0.6,0-1.1-0.5-1.1-1.1V33.9c0-0.6-0.5-1.1-1.1-1.1h-4.3V32.7z"/>
	<path class="st1" d="M230.4,32.7L230.4,32.7C230.4,32.8,230.3,32.8,230.4,32.7c-3.3,0.2-6,2.8-6.1,6.1l0,0l0,0l0,0v21.7l0,0l0,0
		c0,0.1,0,0.2,0,0.3c0,3.4,2.7,6.3,6.1,6.4l0,0l0,0l0,0l0,0h23.5l0,0l0,0l0,0l0,0c3.4-0.2,6.1-3,6.1-6.4c0-0.1,0-0.2,0-0.3l0,0l0,0
		V38.9l0,0l0,0c-0.1-3.3-2.8-6-6.1-6.1l0,0l0,0L230.4,32.7L230.4,32.7z M234.7,38.9L234.7,38.9L234.7,38.9L234.7,38.9
		c-2.1,0.1-3.7,1.8-3.8,3.9l0,0l0,0v13.7l0,0l0,0c0,0.1,0,0.1,0,0.2c0,2.2,1.7,3.9,3.8,4l0,0l0,0l0,0l0,0h14.7l0,0l0,0l0,0l0,0
		c2.1-0.1,3.8-1.9,3.8-4c0-0.1,0-0.1,0-0.2l0,0l0,0l0,0l0,0V42.7l0,0l0,0c-0.1-2.1-1.7-3.8-3.8-3.9l0,0l0,0l0,0l0,0h-14.7V38.9z"/>
	<path class="st1" d="M339.4,66.2c0,0.6,0.5,1.1,1.1,1.1h4.4c0.6,0,1.1-0.5,1.1-1.1V39.4l0,0l0,0l0,0l0,0c0-0.1,0-0.2,0-0.3
		c0-3.4-2.7-6.3-6-6.4l0,0l0,0h-22.5l0,0l0,0c-0.1,0-0.2,0-0.3,0c-3.5,0-6.3,2.9-6.3,6.4c0,0.1,0,0.2,0,0.3l0,0l0,0v26.7
		c0,0.6,0.5,1.1,1.1,1.1h4.4c0.6,0,1.1-0.5,1.1-1.1V55c0-0.6,0.5-1.1,1.1-1.1h19.8c0.6,0,1.1,0.5,1.1,1.1L339.4,66.2L339.4,66.2z
		 M317.3,47.8v-5.6c0-2.2,1.7-3.9,3.9-3.9h14.3c2.1,0,3.9,1.7,3.9,3.9v5.6c0,0.6-0.5,1.1-1.1,1.1h-19.8
		C317.8,48.9,317.3,48.4,317.3,47.8z"/>
	<path class="st1" d="M432,67.3c-0.6,0-1.1-0.5-1.1-1.1V55c0-0.6-0.5-1.1-1.1-1.1h-20c-0.6,0-1.1,0.5-1.1,1.1v11.1
		c0,0.6-0.5,1.1-1.1,1.1h-4.4c-0.6,0-1.1-0.5-1.1-1.1V39.4l0,0l0,0l0,0l0,0c0-0.1,0-0.2,0-0.3c0-3.5,2.9-6.4,6.4-6.4
		c0.1,0,0.2,0,0.3,0l0,0l0,0h22.8l0,0l0,0c3.4,0.2,6.1,3,6.1,6.4c0,0.1,0,0.2,0,0.3l0,0l0,0l0,0v26.7c0,0.6-0.5,1.1-1.1,1.1
		L432,67.3L432,67.3z M408.6,42.2v5.6c0,0.6,0.5,1.1,1.1,1.1h20c0.6,0,1.1-0.5,1.1-1.1v-5.6c0-2.2-1.7-3.9-3.9-3.9h-14.4
		C410.4,38.3,408.6,40.1,408.6,42.2z"/>
	<path class="st0" d="M362.5,32.7c0.3,0,0.6,0.1,0.8,0.4L383,56.6c0.7,0.8,2,0.3,2-0.7v-22c0-0.6,0.5-1.1,1.1-1.1h4.4
		c0.6,0,1.1,0.5,1.1,1.1v32.3c0,0.6-0.5,1.1-1.1,1.1H385l0,0l0,0L365,44c-0.7-0.8-2-0.3-2,0.7v21.5c0,0.6-0.5,1.1-1.1,1.1h-4.4
		c-0.6,0-1.1-0.5-1.1-1.1V33.9c0-0.6,0.5-1.1,1.1-1.1h5V32.7z"/>
	<path class="st0" d="M77,68.5c0.5-0.5,1.3-0.9,2.1-0.9h71.4c1.3,0,2,1.6,1,2.5l-14.1,14.1c-0.5,0.5-1.3,0.9-2.1,0.9H63.9
		c-1.3,0-2-1.6-1-2.5L77,68.5z"/>
	<path class="st0" d="M77,15.8c0.5-0.5,1.3-0.9,2.1-0.9h71.4c1.3,0,2,1.6,1,2.5l-14.1,14.1c-0.5,0.5-1.3,0.9-2.1,0.9H63.9
		c-1.3,0-2-1.6-1-2.5L77,15.8z"/>
	<path class="st0" d="M137.3,42c-0.5-0.5-1.3-0.9-2.1-0.9H63.9c-1.3,0-2,1.6-1,2.5L77,57.7c0.5,0.5,1.3,0.9,2.1,0.9h71.4
		c1.3,0,2-1.6,1-2.5L137.3,42z"/>
</g>
</svg>
