<?xml version="1.0" encoding="utf-8"?>
<!-- Generator: Adobe Illustrator 25.4.1, SVG Export Plug-In . SVG Version: 6.00 Build 0)  -->
<svg version="1.1" id="Layer_1" xmlns="http://www.w3.org/2000/svg" xmlns:xlink="http://www.w3.org/1999/xlink" x="0px" y="0px"
	 viewBox="0 0 360 104" style="enable-background:new 0 0 360 104;" xml:space="preserve">
<style type="text/css">
	.st0{fill-rule:evenodd;clip-rule:evenodd;fill:#FFFFFF;}
	.st1{fill:#FFFFFF;}
</style>
<g transform="matrix(4.34798 0 0 4.33333 97.3825 148)">
	<path class="st0" d="M22.4-26.5h3v10.3h-3V-26.5z"/>
	<g>
		<path class="st1" d="M20.5-22.3c-0.3-0.6-0.8-1.1-1.3-1.5c0.7-0.8,1.1-1.8,1-2.9c-0.1-2.2-2-3.9-4.2-3.9H9.9v14.4h7.1
			c2.3,0,4.1-1.8,4.1-4.1C21-21,20.9-21.7,20.5-22.3z M16.5-18.6h-3.6v-3.5h3.6c1,0,1.8,0.8,1.8,1.8C18.2-19.4,17.4-18.6,16.5-18.6z
			 M15.7-24.6h-2.9v-3.5h2.8c1,0,1.8,0.8,1.8,1.8C17.4-25.4,16.6-24.6,15.7-24.6z"/>
		<path class="st1" d="M60.4-30.2H57l-2.7,4.3l-2.7-4.3h-3.4l4.4,7l-4.4,7h3.4l2.7-4.3l2.7,4.3h3.4l-4.4-7L60.4-30.2z"/>
		<path class="st1" d="M36-21.9v5.7h-3v-6.2c0-0.9-0.7-1.6-1.7-1.6c-0.9,0-1.6,0.8-1.6,1.7v6.2h-3v-10.3h3v0.5
			c0.7-0.3,1.4-0.5,2.2-0.5c0.4,0,0.8,0,1.1,0.1c1.6,0.4,2.8,1.8,2.8,3.5C36-22.5,36-22.2,36-21.9z"/>
	</g>
	<path class="st0" d="M22.4-30.6h3v3h-3V-30.6z"/>
	<path class="st1" d="M47.5-26.5h-5.1c0,0,0,0-0.1,0c-2.8,0-5.2,2.3-5.2,5.2c0,2.8,2.3,5.1,5.1,5.1c0,0,0,0,0,0
		c1.1,0,2.2,0.3,2.2,1.3c0,1-1,1.8-2.2,1.8c-1.2,0-2.2-1-2.2-2.2h-3c0,2.8,2.3,5.2,5.2,5.2c2.8,0,5.2-2.3,5.2-5.2
		c0,0,0.1-1.5-1.2-2.7c0.8-0.9,1.2-2.1,1.2-3.4c0-1-0.3-1.9-0.8-2.7h0.8V-26.5z M42.3-19.1c-1.2,0-2.2-1-2.2-2.2
		c0-1.2,1-2.2,2.2-2.2s2.2,1,2.2,2.2C44.5-20.1,43.5-19.1,42.3-19.1z"/>
	<path class="st1" d="M5-34.2c-3.2,0-6.3,0.8-9,2.3c-1.5,0.8-2.8,1.8-4.1,3c-0.3,0.3-0.6,0.6-0.8,0.9c-0.9,1-1.7,2.1-2.4,3.2
		c-0.2,0.4-0.5,0.8-0.8,1.2c0,0.1-0.1,0.1-0.1,0.1c-2.4,3.2-6.2,5.1-10.2,5.1v6c3.2,0,6.3-0.8,9-2.3c1.5-0.8,2.8-1.8,4.1-3
		c0.3-0.3,0.6-0.6,0.8-0.9c0.9-1,1.7-2.1,2.3-3.2l0-0.1c0.2-0.4,0.5-0.8,0.7-1.1c0,0,0.1-0.1,0.1-0.2C-2.8-26.3,1-28.2,5-28.2V-34.2
		z"/>
	<path class="st1" d="M5-18.3c-4.1,0-7.8-1.9-10.2-5.1c0,0-0.1-0.1-0.1-0.2c-0.3-0.4-0.5-0.8-0.8-1.2C-6.8-25.9-7.6-27-8.5-28
		c-0.3-0.3-0.5-0.6-0.8-0.9c-1.2-1.2-2.6-2.2-4.1-3c-2.8-1.5-5.9-2.3-9-2.3v6c4.1,0,7.8,1.9,10.2,5.1c0,0,0.1,0.1,0.1,0.1
		c0.3,0.4,0.5,0.7,0.7,1.1l0,0.1c0.7,1.1,1.5,2.2,2.3,3.2c0.3,0.3,0.5,0.6,0.8,0.9c1.2,1.2,2.6,2.2,4.1,3c2.8,1.5,5.9,2.3,9,2.3
		V-18.3z"/>
</g>
</svg>
