<?xml version="1.0" encoding="utf-8"?>
<!-- Generator: Adobe Illustrator 25.4.1, SVG Export Plug-In . SVG Version: 6.00 Build 0)  -->
<svg version="1.1" id="Layer_1" xmlns="http://www.w3.org/2000/svg" xmlns:xlink="http://www.w3.org/1999/xlink" x="0px" y="0px"
	 viewBox="0 0 360 104" style="enable-background:new 0 0 360 104;" xml:space="preserve">
<style type="text/css">
	.st0{fill-rule:evenodd;clip-rule:evenodd;fill:#FFFFFF;}
	.st1{fill:#FFFFFF;}
</style>
<g>
	<g>
		<g>
			<path class="st1" d="M144,52.2c2.5-1.4,4.5-3.2,6-5.3c1.7-2.4,2.5-5.2,2.5-8.1c0-5.6-2.1-9.9-6.2-12.9c-4.1-3-9.6-4.5-16.6-4.5
				h-25.1V86h26.1c7.3,0,13.2-1.7,17.4-5.1c4.3-3.4,6.4-8.1,6.4-14.1c0-3.6-1-6.8-3-9.3C149.8,55.3,147.2,53.5,144,52.2z
				 M118.2,33.1h10.4c3.3,0,5.7,0.6,7.4,1.9c1.6,1.2,2.4,2.9,2.4,4.9c0,2.1-0.8,3.8-2.4,5c-1.6,1.2-4.1,1.9-7.4,1.9h-10.4
				C118.2,46.9,118.2,33.1,118.2,33.1z M137.9,72.2c-1.8,1.4-4.6,2.2-8.2,2.2h-11.4V58.6h11.4c3.6,0,6.4,0.7,8.2,2.1
				c1.8,1.4,2.7,3.2,2.7,5.6C140.5,68.8,139.7,70.7,137.9,72.2z M173,37.8h-13.7V86H173V37.8L173,37.8z M308.3,45
				c-2.2-2.6-5-4.7-8.1-6c-3.2-1.4-6.8-2.1-10.7-2.1c-4.8,0-9,1.1-12.8,3.2c-3.7,2.1-6.7,5.1-8.8,8.8c-2.1,3.7-3.2,8-3.2,12.8
				c0,4.8,1,9.4,3.1,13.2c2,3.7,5,6.8,8.7,8.8c3.7,2.1,8.1,3.1,13.1,3.1c6,0,11.2-1.5,15.3-4.5c3.9-2.9,6.6-7,8.1-12.1h-13.8
				c-0.7,1.7-1.7,3.2-3.2,4.3c-1.7,1.2-4,1.9-6.6,1.9c-2.3,0-4.3-0.6-5.9-1.7c-1.6-1.1-2.8-2.8-3.6-4.9c-0.5-1.4-0.9-2.9-1-4.4h34.5
				l0.1-0.4c0.6-3.9,0.5-7.6-0.5-11C312,50.7,310.4,47.6,308.3,45L308.3,45z M279.1,56.5c0.2-1,0.5-2,0.9-2.9
				c0.8-2.2,2.1-3.8,3.6-4.9c1.5-1.1,3.5-1.7,5.7-1.7c2.8,0,5.1,0.9,6.9,2.7c1.7,1.7,2.6,4.1,2.8,6.8L279.1,56.5L279.1,56.5z
				 M173.3,21.5H159v11.6h14.3V21.5z M248.3,43.2c-1.5-1.9-3.5-3.4-5.7-4.5c-2.6-1.2-5.5-1.9-8.9-1.9c-4.1,0-7.8,1-10.9,3
				c-3.1,2-5.6,4.8-7.4,8.3c-1.8,3.5-2.7,7.7-2.7,12.3c0,4.7,0.9,8.6,2.8,12.1c1.9,3.6,4.4,6.4,7.7,8.5c3.2,2,6.9,3.1,10.9,3.1
				c3,0,5.8-0.7,8.3-2c1.9-1,3.5-2.4,4.8-4.1v5.2c0,3.3-0.9,5.8-2.5,7.4c-1.7,1.7-4.3,2.5-7.6,2.5c-2.9,0-5.2-0.7-6.8-2
				c-1.3-1.1-2.5-2.5-2.7-5.4h-13.2c0.1,4.1,1.3,6.9,3.1,9.4c1.9,2.7,4.6,4.9,8.1,6.4c3.4,1.5,7.3,2.2,11.7,2.2
				c7.3,0,13.2-1.8,17.3-5.5c4.2-3.7,6.3-8.8,6.3-15.2V37.8h-12.6V43.2L248.3,43.2z M245.9,67c-0.8,1.7-2.1,3.2-3.6,4.2
				c-1.6,1-3.4,1.5-5.6,1.5c-3.1,0-5.5-1.1-7.4-3.2c-1.9-2.2-2.8-5.1-2.8-8.8s0.9-6.7,2.8-8.8c1.8-2.1,4.3-3.2,7.4-3.2
				s5.8,1.1,7.7,3.3c1.9,2.2,2.9,5.2,2.9,8.9C247.2,63,246.7,65.1,245.9,67L245.9,67z M346.5,49.3V37.8h-9.9V21.5h-13.6v16.3h-8.4
				v11.5h8.4v18.9c0,10.5,2.1,18.2,15,18l8.1-0.2V75.2h-4c-5.7,0-5.4-3.3-5.4-9.5l0-16.3H346.5L346.5,49.3z M209.4,49.3V37.8h-9.9
				V21.5H186v16.3h-8.4v11.5h8.4v18.9c0,10.5,2.1,18.2,15,18L209,86V75.2h-4c-5.7,0-5.4-3.3-5.4-9.5l0-16.3H209.4L209.4,49.3z
				 M47.6,33.1h20.5l21,20.9c1.4,1.4,1.4,3.6,0,4.9L62.2,86H41.1l6.4-6.2L71,56.5L47.8,33.1"/>
			<path class="st1" d="M56,56.4H35.5l-21-20.9c-1.4-1.4-1.4-3.6,0-4.9l0,0l27-27.1h21.2l-6.4,6.2L32.7,33.1l23.2,23.3"/>
		</g>
	</g>
</g>
</svg>
