<svg width="512" height="155" viewBox="0 0 512 155" fill="none" xmlns="http://www.w3.org/2000/svg">
<g clip-path="url(#clip0_3037_70306)">
<path d="M200.682 74.9286C204.533 72.7413 207.619 70.0179 209.865 66.8067C212.425 63.1505 213.725 58.9743 213.725 54.4013C213.725 45.8398 210.524 39.1573 204.217 34.5361C197.985 29.9685 189.41 27.6553 178.723 27.6553H140.078V126.826H180.267C191.522 126.826 200.534 124.21 207.05 119.044C213.618 113.836 216.952 106.542 216.952 97.3617C216.952 91.7729 215.384 86.9641 212.296 83.072C209.525 79.5927 205.624 76.8559 200.684 74.9286H200.682ZM160.991 45.5289H177.042C182.076 45.5289 185.877 46.5046 188.346 48.4238C190.785 50.3189 191.97 52.8091 191.97 56.0337C191.97 59.2584 190.785 61.8746 188.346 63.7777C185.877 65.697 182.076 66.6727 177.042 66.6727H160.991V45.5289ZM191.209 105.591C188.426 107.821 184.178 108.95 178.584 108.95H160.991V84.6803H178.584C184.175 84.6803 188.429 85.7712 191.222 87.913C193.991 90.0493 195.337 92.8692 195.337 96.5442C195.337 100.409 193.986 103.369 191.209 105.594V105.591Z" fill="white"/>
<path d="M245.205 52.6685H224.152V126.822H245.205V52.6685Z" fill="white"/>
<path d="M453.137 63.82C449.805 59.8528 445.629 56.7434 440.724 54.5749C435.824 52.4091 430.313 51.3047 424.351 51.3047C417.044 51.3047 410.453 52.9639 404.754 56.2341C399.042 59.5151 394.509 64.0719 391.277 69.7868C388.044 75.4962 386.406 82.1224 386.406 89.475C386.406 96.8277 387.996 103.891 391.129 109.689C394.271 115.505 398.787 120.068 404.551 123.26C410.303 126.434 417.06 128.045 424.633 128.045C433.929 128.045 441.82 125.707 448.093 121.094C454.134 116.655 458.289 110.394 460.552 102.556H439.357C438.242 105.223 436.671 107.493 434.422 109.094C431.763 110.981 428.329 111.938 424.212 111.938C420.642 111.938 417.583 111.069 415.12 109.359C412.646 107.649 410.756 105.121 409.515 101.838C408.77 99.8861 408.242 97.6425 407.931 95.147H460.922L461.026 94.4876C461.972 88.5074 461.734 82.8408 460.308 77.646C458.879 72.4378 456.467 67.7871 453.137 63.82ZM408.266 81.4174C408.59 79.9083 409.027 78.3376 409.582 76.9062C410.874 73.5797 412.739 71.0198 415.13 69.3096C417.511 67.5995 420.473 66.7363 423.936 66.7363C428.276 66.7363 431.838 68.1436 434.524 70.9126C437.07 73.5475 438.515 77.1474 438.823 81.4174H408.268H408.266Z" fill="white"/>
<path d="M245.635 27.6519H223.703V45.5254H245.635V27.6519Z" fill="white"/>
<path d="M360.93 61.0805C358.44 58.089 355.521 55.7704 352.229 54.1675C348.3 52.267 343.702 51.3047 338.564 51.3047C332.273 51.3047 326.633 52.8567 321.808 55.9125C316.989 58.9656 313.166 63.2812 310.451 68.7306C307.746 74.1667 306.371 80.549 306.371 87.7086C306.371 94.8682 307.816 100.875 310.668 106.349C313.525 111.841 317.487 116.216 322.441 119.357C327.405 122.507 333.066 124.104 339.269 124.104C343.952 124.104 348.23 123.091 351.977 121.089C354.944 119.505 357.429 117.409 359.389 114.849V122.922C359.389 127.927 358.073 131.768 355.486 134.328C352.891 136.888 348.946 138.18 343.756 138.18C339.285 138.18 335.768 137.167 333.307 135.164C331.294 133.526 329.536 131.377 329.126 126.825H308.829C309.017 133.194 310.888 137.486 313.528 141.246C316.49 145.46 320.656 148.754 325.92 151.03C331.134 153.279 337.183 154.421 343.898 154.421C355.17 154.421 364.144 151.588 370.564 146.007C377.024 140.394 380.299 132.535 380.299 122.652V52.6664H360.93V61.0805ZM357.223 97.5594C355.888 100.315 354.004 102.475 351.615 103.971C349.23 105.467 346.351 106.228 343.054 106.228C338.288 106.228 334.583 104.606 331.721 101.267C328.869 97.9454 327.424 93.3832 327.424 87.7059C327.424 82.0286 328.869 77.4664 331.721 74.1399C334.546 70.8455 338.36 69.1783 343.054 69.1783C347.747 69.1783 351.894 70.8697 354.81 74.2149C357.754 77.587 359.247 82.1733 359.247 87.8372C359.247 91.5069 358.566 94.7744 357.223 97.5568V97.5594Z" fill="white"/>
<path d="M512.002 70.4032V52.669H496.806V27.6519H475.893V52.669H462.914V70.4032H475.893V99.433C475.893 115.572 479.072 127.434 498.889 127.066L511.329 126.822V110.195H505.156C496.348 110.195 496.839 105.059 496.839 95.5222L496.804 70.4032H511.999H512.002Z" fill="white"/>
<path d="M301.256 70.4032V52.669H286.06V27.6519H265.147V52.669H252.168V70.4032H265.147V99.433C265.147 115.572 268.326 127.434 288.143 127.066L300.583 126.822V110.195H294.41C285.602 110.195 286.092 105.059 286.092 95.5222L286.058 70.4032H301.253H301.256Z" fill="white"/>
<path d="M52.4882 45.5261H84.0671L116.373 77.6251C118.474 79.7132 118.485 83.1094 116.394 85.2083L74.9642 126.847H42.4336L52.2684 117.286L88.3774 81.4046L52.7267 45.5234" fill="white"/>
<path d="M65.4673 81.3252H33.8883L1.58286 49.2262C-0.518654 47.1381 -0.529376 43.7419 1.56142 41.6431L42.9912 0.00146484H75.5218L65.6871 9.56281L29.578 45.444L65.2287 81.3252" fill="white"/>
</g>
<defs>
<clipPath id="clip0_3037_70306">
<rect width="512" height="154.416" fill="white"/>
</clipPath>
</defs>
</svg>
