<?xml version="1.0" encoding="utf-8"?>
<!-- Generator: Adobe Illustrator 25.4.1, SVG Export Plug-In . SVG Version: 6.00 Build 0)  -->
<svg version="1.1" id="Layer_1" xmlns="http://www.w3.org/2000/svg" xmlns:xlink="http://www.w3.org/1999/xlink" x="0px" y="0px"
	 viewBox="0 0 500 100" style="enable-background:new 0 0 500 100;" xml:space="preserve">
<style type="text/css">
	.st0{fill:#FFFFFF;}
	.st1{fill:url(#SVGID_1_);}
</style>
<g>
	<path class="st0" d="M103.9,62.1L83.3,26.3c-4.5-7.5-15.6-7.5-19.9,0.3L41.7,63.8c-4,6.8,1,15.4,9,15.4h43.4
		C102.3,79.2,108.5,70.4,103.9,62.1z"/>
	<path class="st0" d="M74.2,64.9l-1.3-2.2c-1.2-2.1-3.8-6.5-3.8-6.5L51.6,25.8c-4.5-6.7-15.2-7.3-19.8,1.2L11.5,62.2
		c-4.2,7.4,0.8,17,9.9,17.1h43.2h18.5h11C82.8,79.3,79.2,73.5,74.2,64.9z"/>
	<linearGradient id="SVGID_1_" gradientUnits="userSpaceOnUse" x1="40.1448" y1="57.8011" x2="93.8526" y2="57.8011">
		<stop  offset="0" style="stop-color:#FFFFFF;stop-opacity:0"/>
		<stop  offset="0.3576" style="stop-color:#E8E8E8;stop-opacity:0.3576"/>
		<stop  offset="0.7138" style="stop-color:#D9D9D9;stop-opacity:0.7138"/>
		<stop  offset="1" style="stop-color:#D4D4D4"/>
	</linearGradient>
	<path class="st1" d="M74.2,64.9l-1.3-2.2c-1.2-2.1-3.8-6.5-3.8-6.5L57.8,36.3L41.6,63.9c-4,6.8,1,15.4,9,15.4h13.9h18.4h11
		C82.7,79.2,79.2,73.5,74.2,64.9z"/>
	<g>
		<path class="st0" d="M486.7,76.5c-2.9,0-5.2-0.6-7-1.7c-1.8-1.2-2.8-2.9-2.8-5.3V34.8h4.6c1.7,0,3.1,1.3,3.1,3.1v30.5
			c0,0.1,0,1.5,1.2,2.7c0.7,0.7,1.6,1.1,2.8,1.1h0.9c0.3,0,0.6,0.3,0.6,0.6v3.7L486.7,76.5z"/>
		<path class="st0" d="M387.4,76.5c-4.8,0-8.7-1.3-11.6-3.8c-1.5-1.3-2.5-2.7-3.2-4.3c-0.6-1.6-1-3.9-1-7c0-3,0.3-5.4,1-7
			c0.6-1.5,1.6-2.9,3.1-4.1c2.9-2.5,6.8-3.8,11.6-3.8c4.8,0,8.7,1.3,11.6,3.8c1.5,1.3,2.5,2.7,3.1,4.1c0.6,1.7,1,4,1,7
			c0,3.1-0.3,5.4-1,7c-0.6,1.6-1.7,3-3.2,4.3C396.1,75.2,392.2,76.5,387.4,76.5z M387.4,50.8c-5.2,0-7.9,3.6-7.9,10.6
			c0,7.1,2.6,10.7,7.9,10.7c5.2,0,7.9-3.6,7.9-10.6C395.3,54.4,392.6,50.8,387.4,50.8z"/>
		<path class="st0" d="M420.3,76.5c-4.1,0-7.9-1.1-11.2-3.3c-0.3-0.3-1-0.7-1.7-1.2c-0.2-0.1-0.3-0.3-0.3-0.6V34.8h4.7
			c1.7,0,3.1,1.4,3.1,3.1v10.7l1.4-0.8c1.7-0.9,3.9-1.3,6.7-1.3c5,0,8.8,1.5,11.4,4.4c2.2,2.6,3.3,6.1,3.3,10.4s-1.3,7.8-3.8,10.3
			C430.9,74.9,426.3,76.5,420.3,76.5z M421.1,50.8c-1.7,0-3.7,0.6-6,2l-0.3,0.2v17.2l0.3,0.2c1.7,1.1,3.8,1.7,6,1.7
			c2.9,0,5.1-1.2,6.6-3.6c1.3-1.9,2-4.4,2-7.1C429.7,54.4,426.7,50.8,421.1,50.8z"/>
		<path class="st0" d="M456,76.4c-8.7,0-14.2-5.7-14.2-15c0-9.2,5.4-14.9,14-14.9c3.3,0,6.2,0.9,8.5,2.5l0.5,0.3V47h6.1
			c0.4,0,0.6,0.3,0.6,0.6v28.2h-6.8v-2.5l-0.5,0.4C462.4,75.4,459.4,76.4,456,76.4z M457.6,51.5c-5.5,0-8.7,4.2-8.7,9.8
			s3.3,10,8.7,10c1.7,0,4.8-0.2,7.1-2.5l0.1-0.1V54.3l-0.1-0.1C463.1,52.3,460.6,51.5,457.6,51.5z"/>
		<path class="st0" d="M174,76.1V34.7h34.4v2.6c0,2.1-1.7,3.7-3.7,3.7h-22.1v11.2h22.1v6.4h-22.1v11.1h22.1c2.1,0,3.7,1.7,3.7,3.7
			V76L174,76.1z"/>
		<path class="st0" d="M257.7,34.7h-8.1c-1.5,0-2.9,0.6-3.8,1.8l-9.7,12.3l-9.8-12.2c-1-1.2-2.3-1.8-3.8-1.8h-8.1l16.4,20.6
			L214.4,76h8.1c1.5,0,2.9-0.6,3.8-1.8l9.8-12.2l9.8,12.3c1,1.1,2.3,1.8,3.8,1.8h8.1l-16.4-20.6L257.7,34.7z"/>
		<path class="st0" d="M147.1,71.7L158.4,52v24h8.6V34.6h-5.3c-1.7,0-3.3,0.9-4,2.4l-13.6,24.6L130.6,37c-0.8-1.5-2.4-2.4-4-2.4
			h-5.3V76h8.6V52l11.2,19.7H147.1z"/>
		<path class="st0" d="M280.1,76.5c-11.9,0.2-21.6-9.2-21.7-21.1c0-6.5,2-11.9,5.7-15.6c3.7-3.7,9.1-5.6,15.6-5.6
			c7.5,0,13.5,2.6,17.8,7.7l-2.7,2.3c-1.7,1.4-4.1,1.5-6,0.2c-2.4-1.8-5.4-2.7-8.8-2.7c-8.4,0-13.4,5.1-13.4,13.7
			c0,8.7,5.2,14,13.4,14c3.5,0,6.4-1,8.8-2.7c1.7-1.3,4.2-1.3,6,0.2l2.7,2.3C293.2,74,287.5,76.5,280.1,76.5z"/>
		<path class="st0" d="M332.9,76.5c-13.3,0-21.6-8.1-21.6-21.1s8.3-21.1,21.4-21.1c6.3,0,11.7,1.8,15.8,5.6l-2,2.2
			c-0.9,1-2.1,1.5-3.4,1.5c-0.7,0-1.4-0.2-2.1-0.5c-2.5-1.3-5.3-1.9-8.3-1.9c-8.6,0-13.9,5.5-13.9,14.3c0,8.9,5.6,14.4,14.4,14.4
			c4.3,0,7.6-0.8,10.1-2.5l0.2-0.1v-8.5h-9.4V56c0-2.1,1.7-3.7,3.7-3.7h11.7c0.3,0,0.6,0.3,0.6,0.6v18.3
			C346.1,74.7,340.3,76.5,332.9,76.5z"/>
		<path class="st0" d="M365.5,76.5c-2.9,0-5.2-0.6-7-1.7c-1.8-1.2-2.8-2.9-2.8-5.3V34.8h4.6c1.7,0,3.1,1.3,3.1,3.1v30.5
			c0,0.1,0,1.5,1.2,2.7c0.7,0.7,1.6,1.1,2.8,1.1h0.9c0.3,0,0.6,0.3,0.6,0.6v3.7L365.5,76.5z"/>
	</g>
</g>
</svg>
