<?xml version="1.0" encoding="utf-8"?>
<!-- Generator: Adobe Illustrator 25.4.1, SVG Export Plug-In . SVG Version: 6.00 Build 0)  -->
<svg version="1.1" id="Layer_1" xmlns="http://www.w3.org/2000/svg" xmlns:xlink="http://www.w3.org/1999/xlink" x="0px" y="0px"
	 viewBox="0 0 500 100" style="enable-background:new 0 0 500 100;" xml:space="preserve">
<style type="text/css">
	.st0{fill:#FFFFFF;}
	.st1{fill:url(#SVGID_1_);}
</style>
<g id="g18_00000169546690411557235820000015287780243903814024_" transform="translate(-39.87 -50.56)">
	<g>
		<path id="path16_00000143605123509008414360000017026700653370306196_" class="st0" d="M105.3,100.6l-9.2,9.2l-9.2-9.2l9.2-9.2
			L105.3,100.6z M127.7,78.2L143.5,94l9.2-9.2l-25-25l-25,25l9.2,9.2L127.7,78.2z M159.3,91.3l-9.2,9.2l9.2,9.2l9.2-9.2L159.3,91.3z
			 M127.7,122.9l-15.8-15.8l-9.2,9.2l25,25l25-25l-9.2-9.2L127.7,122.9z M127.7,109.8l9.2-9.2l-9.2-9.2l-9.2,9.2L127.7,109.8z
			 M224.9,110.7L224.9,110.7c0-6.1-3.2-9.1-8.4-11.1c3.2-1.8,5.9-4.6,5.9-9.7v-0.1c0-7-5.6-11.6-14.8-11.6h-20.8v44.7h21.3
			C218.3,122.9,225,118.8,224.9,110.7L224.9,110.7z M212.7,91.5c0,3.3-2.8,4.7-7.1,4.7h-9.1v-9.4h9.7c4.2,0,6.5,1.7,6.5,4.6
			L212.7,91.5z M215.2,109.4c0,3.3-2.6,4.9-7,4.9h-11.7v-9.8h11.4C213,104.5,215.2,106.4,215.2,109.4L215.2,109.4z M245.6,122.9
			V78.2h-9.9v44.7C235.7,122.9,245.6,122.9,245.6,122.9z M298.6,122.9V78.2h-9.7v27.6l-21-27.6h-9.1v44.7h9.7V94.5l21.7,28.4H298.6z
			 M353.1,122.9l-19.2-45.1h-9.1l-19.2,45.1h10l4.1-10h18.9l4.1,10H353.1z M335.2,104.2h-11.9l5.9-14.5L335.2,104.2z M400,122.9
			V78.2h-9.7v27.6l-21-27.6h-9.1v44.7h9.7V94.5l21.7,28.4H400z M450.8,115.7l-6.3-6.3c-3.5,3.2-6.6,5.2-11.8,5.2
			c-7.7,0-13-6.4-13-14.1v-0.1c0-7.7,5.4-13.9,13-13.9c4.5,0,8,1.9,11.4,5l6.2-7.2c-4.2-4.1-9.2-6.9-17.6-6.9
			c-13.7,0-23.3,10.4-23.3,23.1v0.1c0,12.8,9.8,23,22.9,23C441.1,123.7,446.2,120.6,450.8,115.7L450.8,115.7z M492.8,122.9v-8.8
			h-24.3v-9.4h21.1V96h-21.1v-9h24v-8.8h-33.8v44.7L492.8,122.9z"/>
	</g>
</g>
</svg>
